<svg width="300" height="200" viewBox="0 0 300 200" fill="none" xmlns="http://www.w3.org/2000/svg">
  <rect width="300" height="200" fill="url(#paint0_linear_17958_11)" />
  <path
    d="M256.389 83.7529C256.389 93.8118 247.47 101.971 237.435 101.971C227.4 101.971 219.595 93.8118 219.595 83.7529C219.595 73.8059 227.4 65.6471 237.435 65.6471C247.47 65.6471 256.389 73.8059 256.389 83.7529ZM237.435 50C219.595 50 203.986 64.9765 203.986 83.6412L182.801 113.929C181.686 113.817 181.686 113.706 180.571 113.706C176.111 113.706 171.651 115.047 167.192 117.282L71.973 78.8353C69.4086 67.4353 59.2623 58.9412 47.2206 58.9412C33.395 58.9412 22 70.3412 22 84.3118C22 98.1706 33.395 109.571 47.2206 109.571C52.0161 109.571 56.3634 108.341 60.1554 105.994L156.043 144.441C158.273 156.176 168.308 164 180.572 164C192.837 164 203.987 153.941 205.102 141.535L237.436 117.841C256.39 117.841 272 102.641 272 83.8647C271.999 65.2 256.389 50 237.435 50ZM237.435 61.1765C250.814 61.1765 260.849 71.3471 260.849 83.8647C260.849 96.4941 250.814 106.665 237.435 106.665C225.17 106.665 215.135 96.4941 215.135 83.8647C215.135 71.3471 225.17 61.1765 237.435 61.1765ZM47.2206 65.6471C54.3565 65.6471 60.6003 69.5588 63.7233 75.4824L54.468 71.7941C46.9977 69.1118 38.7469 72.8 35.7364 80.1765C32.8375 87.6647 36.1824 96.0471 43.4298 99.2882L51.2345 102.418C50.007 102.753 48.6701 102.865 47.2195 102.865C36.9629 102.865 28.711 94.5941 28.711 84.3118C28.7121 73.9176 36.9629 65.6471 47.2206 65.6471ZM180.571 120.412C190.606 120.412 198.411 128.794 198.411 139.076C198.411 149.471 190.606 157.294 180.571 157.294C172.766 157.294 167.192 153.941 163.847 147.794C167.192 149.471 169.422 150.588 172.766 151.706C180.571 155.059 188.376 150.588 191.721 143.435C193.951 136.507 191.721 127.007 183.916 123.989L176.111 120.86C177.226 120.635 179.456 120.412 180.571 120.412Z"
    fill="white" />
  <defs>
    <linearGradient id="paint0_linear_17958_11" x1="150" y1="0" x2="150" y2="200" gradientUnits="userSpaceOnUse">
      <stop stop-color="#111D2E" />
      <stop offset="1" stop-color="#1385B6" />
    </linearGradient>
  </defs>
</svg>