<svg width="300" height="200" viewBox="0 0 300 200" fill="none" xmlns="http://www.w3.org/2000/svg">
  <rect width="300" height="200" fill="url(#paint0_linear_17958_15)" />
  <path
    d="M140.227 123.795V122.318C140.265 115.462 140.909 110.008 142.159 105.955C143.447 101.902 145.265 98.6439 147.614 96.1818C149.962 93.6818 152.822 91.3901 156.193 89.3068C158.504 87.8674 160.568 86.2955 162.386 84.5909C164.242 82.8485 165.701 80.9167 166.761 78.7955C167.822 76.6364 168.352 74.2311 168.352 71.5795C168.352 68.5871 167.652 65.9924 166.25 63.7955C164.848 61.5985 162.955 59.8939 160.568 58.6818C158.22 57.4697 155.587 56.8636 152.67 56.8636C149.981 56.8636 147.424 57.4508 145 58.625C142.614 59.7614 140.625 61.5038 139.034 63.8523C137.481 66.1629 136.61 69.0985 136.42 72.6591H116.193C116.383 65.4621 118.125 59.4394 121.42 54.5909C124.754 49.7424 129.148 46.1061 134.602 43.6818C140.095 41.2576 146.155 40.0455 152.784 40.0455C160.019 40.0455 166.383 41.3144 171.875 43.8523C177.405 46.3902 181.705 50.0076 184.773 54.7045C187.879 59.3636 189.432 64.8939 189.432 71.2955C189.432 75.6136 188.731 79.4773 187.33 82.8864C185.966 86.2955 184.015 89.3258 181.477 91.9773C178.939 94.6288 175.928 96.9962 172.443 99.0795C169.375 100.973 166.856 102.943 164.886 104.989C162.955 107.034 161.515 109.439 160.568 112.205C159.659 114.932 159.186 118.303 159.148 122.318V123.795H140.227ZM150.114 159.25C146.705 159.25 143.769 158.038 141.307 155.614C138.845 153.189 137.614 150.235 137.614 146.75C137.614 143.341 138.845 140.424 141.307 138C143.769 135.576 146.705 134.364 150.114 134.364C153.485 134.364 156.402 135.576 158.864 138C161.364 140.424 162.614 143.341 162.614 146.75C162.614 149.061 162.027 151.163 160.852 153.057C159.716 154.951 158.201 156.466 156.307 157.602C154.451 158.701 152.386 159.25 150.114 159.25Z"
    fill="white" />
  <defs>
    <linearGradient id="paint0_linear_17958_15" x1="150" y1="0" x2="150" y2="200" gradientUnits="userSpaceOnUse">
      <stop stop-color="#3B3B3B" />
      <stop offset="1" stop-color="#838383" />
    </linearGradient>
  </defs>
</svg>