<svg width="2em" height="2em" viewBox="0 0 24 24" fill="currentColor" xmlns="http://www.w3.org/2000/svg">
  <path fill-rule="evenodd" clip-rule="evenodd"
    d="M19.5 1.5V4.5H22.5V6.5H19.5V9.48999C19.5 9.48999 17.51 9.5 17.5 9.48999V6.5H14.5C14.5 6.5 14.51 4.51001 14.5 4.5H17.5V1.5H19.5ZM17.5 20.5H3.5V6.5H12.5V4.5H3.5C2.40002 4.5 1.5 5.39999 1.5 6.5V20.5C1.5 21.6 2.40002 22.5 3.5 22.5H17.5C18.6 22.5 19.5 21.6 19.5 20.5V11.5H17.5V20.5ZM9.71002 17.33L7.75 14.97L5 18.5H16L12.46 13.79L9.71002 17.33Z" />
</svg>