<svg width="2em" height="2em" viewBox="0 0 24 24" fill="currentColor" xmlns="http://www.w3.org/2000/svg">
  <path fill-rule="evenodd" clip-rule="evenodd"
    d="M8.31424 6.98218H16.1651C16.7174 6.98218 17.1651 7.42989 17.1651 7.98218V13.2661H21.1651V7.98218C21.1651 5.22075 18.9266 2.98218 16.1651 2.98218H8.31424C5.55282 2.98218 3.31424 5.22075 3.31424 7.98218V16.6832C3.31424 19.4446 5.55282 21.6832 8.31424 21.6832H12.2397V17.6832H8.31424C7.76195 17.6832 7.31424 17.2355 7.31424 16.6832V7.98218C7.31424 7.42989 7.76195 6.98218 8.31424 6.98218Z" />
  <path
    d="M10.6569 12.3042C10.6569 11.1997 11.5523 10.3042 12.6569 10.3042H13.0768C14.1814 10.3042 15.0768 11.1997 15.0768 12.3042V12.7242C15.0768 13.8288 14.1814 14.7242 13.0768 14.7242H12.6569C11.5523 14.7242 10.6569 13.8288 10.6569 12.7242V12.3042Z" />
</svg>