<svg width="2em" height="2em" viewBox="0 0 24 24" fill="currentColor" xmlns="http://www.w3.org/2000/svg">
  <path
    d="M14.8 11.975L13.375 10.55L16.95 5.99999H8.825L6.825 3.99999H19C19.4167 3.99999 19.7167 4.18332 19.9 4.54999C20.0833 4.91665 20.05 5.26665 19.8 5.59999L14.8 11.975ZM19.775 22.6L14 16.825V19C14 19.2833 13.9042 19.5208 13.7125 19.7125C13.5208 19.9042 13.2833 20 13 20H11C10.7167 20 10.4792 19.9042 10.2875 19.7125C10.0958 19.5208 10 19.2833 10 19V12.825L1.4 4.22499L2.8 2.79999L21.2 21.2L19.775 22.6Z" />
</svg>