<svg width="2em" height="2em" viewBox="0 0 25 25" fill="currentColor" xmlns="http://www.w3.org/2000/svg">
  <path fill-rule="evenodd" clip-rule="evenodd"
    d="M22.5032 13.1598L22.5032 11.1598L19.5032 11.1598L19.5032 13.1598L22.5032 13.1598ZM10.5032 6.15979L7.50317 9.15979L2.50317 9.15979L2.50317 15.1598L7.50317 15.1598L10.5032 18.1598L15.5032 18.1598L15.5032 6.15979L10.5032 6.15979ZM13.5032 8.15979L13.5032 16.1598L11.3332 16.1598L8.33317 13.1598L4.50317 13.1598L4.50317 11.1598L8.33317 11.1598L11.3332 8.15979L13.5032 8.15979ZM18.629 3.66199L20.0438 5.07559L17.9234 7.19779L16.5086 5.78419L18.629 3.66199ZM20.0406 19.2424L17.9208 17.1196L16.5056 18.5328L18.6254 20.6556L20.0406 19.2424Z" />
</svg>