<svg width="2em" height="2em" viewBox="0 0 24 24" fill="currentColor" xmlns="http://www.w3.org/2000/svg">
  <path
    d="M6 22V17.7C5.05 16.8333 4.3125 15.8208 3.7875 14.6625C3.2625 13.5042 3 12.2833 3 11C3 8.5 3.875 6.375 5.625 4.625C7.375 2.875 9.5 2 12 2C14.0833 2 15.9292 2.6125 17.5375 3.8375C19.1458 5.0625 20.1917 6.65833 20.675 8.625L21.975 13.75C22.0583 14.0667 22 14.3542 21.8 14.6125C21.6 14.8708 21.3333 15 21 15H19V18C19 18.55 18.8042 19.0208 18.4125 19.4125C18.0208 19.8042 17.55 20 17 20H15V22H13V18H17V13H19.7L18.75 9.125C18.3667 7.60833 17.55 6.375 16.3 5.425C15.05 4.475 13.6167 4 12 4C10.0667 4 8.41667 4.675 7.05 6.025C5.68333 7.375 5 9.01667 5 10.95C5 11.95 5.20417 12.9 5.6125 13.8C6.02083 14.7 6.6 15.5 7.35 16.2L8 16.8V22H6ZM12 12.2326C11.6275 12.2326 11.3086 12.1 11.0433 11.8347C10.778 11.5694 10.6454 11.2505 10.6454 10.878C10.6454 10.5054 10.778 10.1865 11.0433 9.92125C11.3086 9.65597 11.6275 9.52333 12 9.52333C12.3726 9.52333 12.6915 9.65597 12.9567 9.92125C13.222 10.1865 13.3547 10.5054 13.3547 10.878C13.3547 11.2505 13.222 11.5694 12.9567 11.8347C12.6915 12.1 12.3726 12.2326 12 12.2326ZM11.3227 8.16869V4.7821H12.6773V8.16869H11.3227ZM11.3227 16.9738V13.5872H12.6773V16.9738H11.3227ZM14.7093 11.5553V10.2006H18.0959V11.5553H14.7093ZM5.90417 11.5553V10.2006H9.29076V11.5553H5.90417Z" />
</svg>