<svg width="2em" height="2em" viewBox="0 0 24 24" fill="currentColor" xmlns="http://www.w3.org/2000/svg">
  <path fill-rule="evenodd" clip-rule="evenodd"
    d="M10.5714 8.46859H8.55041V6.26859H12.0608L15.3517 14.4956L16.608 13.8557L17.6065 15.8161L14.2036 17.5493L12.1116 12.3193L8.84453 17.2399L7.01173 16.023L11.1188 9.83725L10.5714 8.46859Z" />
  <path fill-rule="evenodd" clip-rule="evenodd"
    d="M12 19.8C16.3078 19.8 19.8 16.3078 19.8 12C19.8 7.69218 16.3078 4.2 12 4.2C7.69218 4.2 4.2 7.69218 4.2 12C4.2 16.3078 7.69218 19.8 12 19.8ZM12 22C17.5228 22 22 17.5228 22 12C22 6.47715 17.5228 2 12 2C6.47715 2 2 6.47715 2 12C2 17.5228 6.47715 22 12 22Z" />
</svg>