<svg width="2em" height="2em" viewBox="0 0 24 24" fill="currentColor" xmlns="http://www.w3.org/2000/svg">
  <path fill-rule="evenodd" clip-rule="evenodd"
    d="M12 4C9.79004 4 8 5.78998 8 8C8 10.21 9.79004 12 12 12C14.21 12 16 10.21 16 8C16 5.78998 14.21 4 12 4ZM14 8C14 6.90002 13.1 6 12 6C10.9 6 10 6.90002 10 8C10 9.09998 10.9 10 12 10C13.1 10 14 9.09998 14 8ZM18 18C17.8 17.29 14.7 16 12 16C9.31006 16 6.22998 17.28 6 18H18ZM4 18C4 15.34 9.32996 14 12 14C14.67 14 20 15.34 20 18V20H4V18Z" />
</svg>