<svg width="2em" height="2em" viewBox="0 0 24 24" fill="currentColor" xmlns="http://www.w3.org/2000/svg">
  <path fill-rule="evenodd" clip-rule="evenodd"
    d="M12 2C6.47998 2 2 6.48001 2 12C2 17.52 6.47998 22 12 22C17.52 22 22 17.52 22 12C22 6.48001 17.52 2 12 2ZM12.51 9.98999C12.51 8.34 11.16 6.98999 9.51001 6.98999C7.85999 6.98999 6.51001 8.34 6.51001 9.98999C6.51001 11.64 7.85999 12.99 9.51001 12.99C11.16 12.99 12.51 11.64 12.51 9.98999ZM9.51001 10.99C8.95996 10.99 8.51001 10.54 8.51001 9.98999C8.51001 9.44 8.95996 8.98999 9.51001 8.98999C10.0601 8.98999 10.51 9.44 10.51 9.98999C10.51 10.54 10.0601 10.99 9.51001 10.99ZM18.01 10.99C18.01 12.1 17.12 12.99 16.01 12.99C14.9 12.99 14.01 12.1 14.01 10.99C14 9.88 14.9 8.98999 16.01 8.98999C17.12 8.98999 18.01 9.88 18.01 10.99ZM9.51001 16C8.12 16 6.53003 16.57 5.84998 17.11C7.21997 18.76 9.23999 19.84 11.51 19.97V17.19C11.51 15.3 14.49 14.49 16.01 14.49C16.89 14.49 18.25 14.77 19.25 15.36C19.73 14.33 20 13.19 20 11.99C20 7.57999 16.41 3.98999 12 3.98999C7.58997 3.98999 4 7.57999 4 11.99C4 13.22 4.28003 14.38 4.78003 15.42C6.12 14.44 8.20996 13.99 9.51001 13.99C9.94995 13.99 10.48 14.05 11.04 14.15C10.41 14.72 9.97998 15.37 9.73999 16.01C9.69873 16.01 9.65735 16.0073 9.61731 16.0047C9.57996 16.0023 9.54382 16 9.51001 16Z" />
</svg>