<svg width="2em" height="2em" viewBox="0 0 24 24" fill="currentColor" xmlns="http://www.w3.org/2000/svg">
  <path fill-rule="evenodd" clip-rule="evenodd"
    d="M13.5 1.33502C13.5 1.33502 14.24 3.98505 14.24 6.13501C14.24 8.19501 12.89 9.86505 10.83 9.86505C8.76001 9.86505 7.19995 8.19501 7.19995 6.13501L7.22998 5.77502C5.20996 8.17505 4 11.285 4 14.665C4 19.085 7.57996 22.665 12 22.665C16.42 22.665 20 19.085 20 14.665C20 9.27502 17.41 4.46503 13.5 1.33502ZM11.5701 13.825C10.2101 14.105 9.40002 14.985 9.40002 16.235C9.40002 17.575 10.51 18.655 11.89 18.655C13.9401 18.655 15.6 16.995 15.6 14.945C15.6 13.875 15.4501 12.825 15.14 11.825C14.35 12.895 12.9401 13.545 11.5701 13.825ZM6 14.665C6 17.975 8.68994 20.665 12 20.665C15.3101 20.665 18 17.975 18 14.665C18 12.105 17.34 9.63501 16.11 7.435C15.58 10.035 13.49 11.865 10.83 11.865C9.27002 11.865 7.87 11.245 6.85999 10.235C6.30005 11.625 6 13.135 6 14.665Z" />
</svg>