<svg width="2em" height="2em" viewBox="0 0 24 24" fill="currentColor" xmlns="http://www.w3.org/2000/svg">
  <path fill-rule="evenodd" clip-rule="evenodd"
    d="M19.5022 12C19.5022 12.34 19.4722 12.66 19.4321 12.98L21.5421 14.63C21.7322 14.78 21.7821 15.05 21.6621 15.27L19.6621 18.73C19.5721 18.89 19.4021 18.98 19.2322 18.98C19.1721 18.98 19.1122 18.97 19.0521 18.95L16.5621 17.95C16.0421 18.34 15.4822 18.68 14.8722 18.93L14.4922 21.58C14.4622 21.82 14.2522 22 14.0022 22H10.0022C9.7522 22 9.54211 21.82 9.51221 21.58L9.1322 18.93C8.52222 18.68 7.96216 18.35 7.44214 17.95L4.95215 18.95C4.9021 18.97 4.84216 18.98 4.7821 18.98C4.60217 18.98 4.43213 18.89 4.34216 18.73L2.34216 15.27C2.22217 15.05 2.27222 14.78 2.46216 14.63L4.57214 12.98C4.5321 12.66 4.5022 12.33 4.5022 12C4.5022 11.67 4.5321 11.34 4.57214 11.02L2.46216 9.37C2.27222 9.22 2.21216 8.95001 2.34216 8.73001L4.34216 5.26999C4.43213 5.10999 4.60217 5.01999 4.77222 5.01999C4.83215 5.01999 4.89221 5.03 4.95215 5.04999L7.44214 6.04999C7.96216 5.66 8.52222 5.32001 9.1322 5.07001L9.51221 2.42001C9.54211 2.17999 9.7522 2 10.0022 2H14.0022C14.2522 2 14.4622 2.17999 14.4922 2.42001L14.8722 5.07001C15.4822 5.32001 16.0421 5.64999 16.5621 6.04999L19.0521 5.04999C19.1022 5.03 19.1621 5.01999 19.2222 5.01999C19.4021 5.01999 19.5721 5.10999 19.6621 5.26999L21.6621 8.73001C21.7821 8.95001 21.7322 9.22 21.5421 9.37L19.4321 11.02C19.4722 11.34 19.5022 11.66 19.5022 12ZM17.5022 12C17.5022 11.79 17.4922 11.58 17.4521 11.27L17.3121 10.14L18.2021 9.44L19.2722 8.59L18.5721 7.38L17.3021 7.89001L16.2422 8.32001L15.3322 7.62C14.9321 7.32001 14.5322 7.09 14.1022 6.91L13.0421 6.48001L12.8822 5.35001L12.6921 4H11.3021L11.1022 5.35001L10.9421 6.48001L9.8822 6.91C9.47217 7.07999 9.06213 7.32001 8.6322 7.64001L7.73218 8.32001L6.69214 7.89999L5.42212 7.39001L4.72217 8.60001L5.80212 9.44L6.69214 10.14L6.55212 11.27C6.52222 11.57 6.5022 11.8 6.5022 12C6.5022 12.2 6.52222 12.43 6.55212 12.74L6.69214 13.87L5.80212 14.57L4.72217 15.41L5.42212 16.62L6.69214 16.11L7.7522 15.68L8.66211 16.38C9.06213 16.68 9.46216 16.91 9.89221 17.09L10.9521 17.52L11.1122 18.65L11.3021 20H12.7021L12.9022 18.65L13.0621 17.52L14.1222 17.09C14.5322 16.92 14.9421 16.68 15.3722 16.36L16.2722 15.68L17.3121 16.1L18.5822 16.61L19.2822 15.4L18.2021 14.56L17.3121 13.86L17.4521 12.73C17.4822 12.43 17.5022 12.21 17.5022 12ZM12.0022 8C9.79224 8 8.0022 9.79001 8.0022 12C8.0022 14.21 9.79224 16 12.0022 16C14.2122 16 16.0022 14.21 16.0022 12C16.0022 9.79001 14.2122 8 12.0022 8ZM10.0022 12C10.0022 13.1 10.9022 14 12.0022 14C13.1022 14 14.0022 13.1 14.0022 12C14.0022 10.9 13.1022 10 12.0022 10C10.9022 10 10.0022 10.9 10.0022 12Z" />
</svg>