<svg width="2em" height="2em" viewBox="0 0 24 24" fill="currentColor" xmlns="http://www.w3.org/2000/svg">
  <path fill-rule="evenodd" clip-rule="evenodd"
    d="M9.18994 9.13L12 2.5L14.8101 9.13L22 9.74L16.54 14.47L18.1801 21.5L12 17.77L5.81995 21.5L7.45996 14.47L2 9.74L9.18994 9.13ZM12.97 9.92L12 7.63L11.03 9.9L10.5601 11.01L9.35999 11.11L6.89001 11.32L8.77002 12.95L9.68005 13.74L9.41003 14.92L8.84998 17.33L10.97 16.05L12 15.43L13.03 16.07L15.15 17.35L14.59 14.94L14.3201 13.76L15.23 12.97L17.11 11.34L14.64 11.13L13.4401 11.03L12.97 9.92Z" />
</svg>