<svg width="2em" height="2em" viewBox="0 0 24 24" fill="currentColor" xmlns="http://www.w3.org/2000/svg">
  <path
    d="M21.4283 4.20365C21.7196 4.51435 21.7214 4.81865 21.7175 5.22457C19.8451 17.4948 21.7175 5.22457 19.8451 17.4948C19.5531 19.238 19.5531 19.238 18.9872 19.8878C18.6149 20.1504 18.1608 20.1076 17.7317 20.036C17.0019 19.7962 16.3859 19.3012 15.7679 18.8591C14.5584 17.9977 13.304 17.1954 12.0669 16.3747C10.8966 15.5979 10.8966 15.5979 10.6874 15.0841C10.677 14.4711 11.009 14.1485 11.4132 13.7207C13.0663 12.037 15.0079 10.6697 16.5373 8.85485C16.6827 8.68377 17.0882 8.3096 16.825 8.10944C16.612 7.99765 16.2167 8.19406 15.9085 8.40014C13.8196 9.75185 11.7768 11.1752 9.69649 12.5404C9.31279 12.7923 8.93072 13.0465 8.55028 13.3034C7.77771 13.8046 6.90748 13.7866 6.01873 13.6455C5.34694 13.4861 4.6882 13.2671 4.02562 13.0733C2.6602 12.656 2.6602 12.656 2.31782 12.2245C2.26987 11.9978 2.26987 11.9978 2.31782 11.7362C2.69889 11.1846 3.46957 10.9476 4.06148 10.69C18.9714 4.40259 4.06148 10.69 18.9714 4.40259C20.6772 3.78306 20.6772 3.78306 21.4283 4.20365Z" />
</svg>