<svg width="2em" height="2em" viewBox="0 0 24 24" fill="currentColor" xmlns="http://www.w3.org/2000/svg">
  <path fill-rule="evenodd" clip-rule="evenodd"
    d="M12 3.625C7.37462 3.625 3.625 7.37462 3.625 12C3.625 16.6254 7.37462 20.375 12 20.375C16.6254 20.375 20.375 16.6254 20.375 12C20.375 7.37462 16.6254 3.625 12 3.625ZM1.625 12C1.625 6.27005 6.27005 1.625 12 1.625C17.73 1.625 22.375 6.27005 22.375 12C22.375 17.73 17.73 22.375 12 22.375C6.27005 22.375 1.625 17.73 1.625 12ZM17.3906 7.35938C17.5864 7.56819 17.5877 7.77271 17.585 8.04552C16.3266 16.2921 17.585 8.04552 16.3266 16.2921C16.1303 17.4637 16.1303 17.4637 15.75 17.9004C15.4998 18.0769 15.1946 18.0481 14.9062 18C14.4157 17.8388 14.0017 17.5062 13.5864 17.209C12.7735 16.6301 11.9305 16.0908 11.099 15.5393C10.3125 15.0172 10.3125 15.0172 10.1719 14.6719C10.1649 14.2599 10.388 14.0431 10.6597 13.7556C11.7707 12.624 13.0756 11.7051 14.1035 10.4854C14.2012 10.3704 14.4737 10.1189 14.2969 9.98438C14.1537 9.90925 13.8881 10.0412 13.6809 10.1797C12.277 11.0882 10.9041 12.0448 9.50593 12.9623C9.24805 13.1317 8.99127 13.3025 8.73558 13.4751C8.21635 13.812 7.63149 13.7999 7.03418 13.7051C6.58268 13.5979 6.13996 13.4508 5.69465 13.3205C4.77698 13.04 4.77698 13.04 4.54688 12.75C4.51465 12.5977 4.51465 12.5977 4.54688 12.4219C4.80298 12.0511 5.32094 11.8919 5.71875 11.7188C15.7394 7.49308 5.71875 11.7188 15.7394 7.49308C16.8859 7.0767 16.8859 7.0767 17.3906 7.35938Z" />
</svg>