<svg width="2em" height="2em" viewBox="0 0 24 24" fill="currentColor" xmlns="http://www.w3.org/2000/svg">
  <path fill-rule="evenodd" clip-rule="evenodd"
    d="M9 1.505H15V3.505H9V1.505ZM11 14.505V8.505H13V14.505H11ZM19.03 7.88501L20.45 6.465C20.02 5.95499 19.55 5.47501 19.04 5.05499L17.62 6.47501C16.0699 5.23499 14.12 4.495 12 4.495C7.03003 4.495 3 8.52499 3 13.495C3 18.465 7.02002 22.495 12 22.495C16.98 22.495 21 18.465 21 13.495C21 11.385 20.26 9.435 19.03 7.88501ZM5 13.505C5 17.375 8.13 20.505 12 20.505C15.87 20.505 19 17.375 19 13.505C19 9.63501 15.87 6.505 12 6.505C8.13 6.505 5 9.63501 5 13.505Z" />
</svg>