<svg width="2em" height="2em" viewBox="0 0 24 24" fill="currentColor" xmlns="http://www.w3.org/2000/svg">
  <path fill-rule="evenodd" clip-rule="evenodd"
    d="M20 5H10.88L10 2H4C2.90002 2 2 2.9 2 4V17C2 18.1 2.90002 19 4 19H11L12 22H20C21.1 22 22 21.1 22 20V7C22 5.9 21.1 5 20 5ZM7.16992 14.59C4.91992 14.59 3.07996 12.76 3.07996 10.5C3.07996 8.24 4.90991 6.41 7.16992 6.41C8.20996 6.41 9.15991 6.78 9.90991 7.48L9.97998 7.54L8.75 8.72L8.68994 8.67C8.3999 8.4 7.90991 8.08 7.16992 8.08C5.85999 8.08 4.78992 9.17 4.78992 10.5C4.78992 11.83 5.85999 12.92 7.16992 12.92C8.53992 12.92 9.13 12.05 9.28992 11.46H7.07996V9.91H11.0299L11.0399 9.98C11.08 10.19 11.09 10.38 11.09 10.59C11.09 12.94 9.47998 14.59 7.16992 14.59ZM14.3899 14.58C13.9399 14.06 13.5299 13.48 13.2 12.88L13.85 15.11L14.3899 14.58ZM13.9701 12.12H12.9801L12.67 11.08H16.66C16.66 11.08 16.3201 12.39 15.1001 13.82C14.5801 13.2 14.2101 12.59 13.9701 12.12ZM20 21C20.55 21 21 20.55 21 20V7C21 6.45 20.55 6 20 6H11.1801L12.3601 10.04H14.3201V9H15.3601V10.04H19V11.08H17.7301C17.41 12.34 16.7101 13.56 15.8101 14.59L18.52 17.27L17.79 18L15.1101 15.31L14.1901 16.23L15 19L13 21H20Z" />
</svg>