<svg width="2em" height="2em" viewBox="0 0 24 24" fill="currentColor" xmlns="http://www.w3.org/2000/svg">
  <path
    d="M5 22C4.45 22 3.97917 21.8042 3.5875 21.4125C3.19583 21.0209 3 20.55 3 20V15.45L5.75 12.325L7.175 13.75L5.175 16H18.825L16.875 13.8L18.3 12.375L21 15.45V20C21 20.55 20.8042 21.0209 20.4125 21.4125C20.0208 21.8042 19.55 22 19 22H5ZM5 20H19V18H5V20ZM10.625 14.375L7.1 10.85C6.71667 10.4667 6.52917 9.99586 6.5375 9.43753C6.54583 8.87919 6.74167 8.40836 7.125 8.02503L12.025 3.12503C12.4083 2.7417 12.8833 2.5417 13.45 2.52503C14.0167 2.50836 14.4917 2.6917 14.875 3.07503L18.4 6.60003C18.7833 6.98336 18.9833 7.45003 19 8.00003C19.0167 8.55003 18.8333 9.0167 18.45 9.40003L13.45 14.4C13.0667 14.7834 12.5958 14.9709 12.0375 14.9625C11.4792 14.9542 11.0083 14.7584 10.625 14.375ZM17 8.02503L13.475 4.50003L8.525 9.45003L12.05 12.975L17 8.02503Z" />
</svg>